<svg  width="100px"
     viewBox="0 0 466 71"
     fill="none"
     xmlns="http://www.w3.org/2000/svg">
    <path d="M135.9 53.768C132.486 53.768 129.329 53.1493 126.428 51.912C123.569 50.6747 121.052 48.9467 118.876 46.728C116.742 44.5093 115.078 41.9067 113.884 38.92C112.689 35.9333 112.092 32.6693 112.092 29.128C112.092 25.5867 112.668 22.3227 113.82 19.336C115.014 16.3067 116.678 13.704 118.812 11.528C120.988 9.30933 123.526 7.60266 126.428 6.408C129.329 5.17066 132.486 4.552 135.9 4.552C139.313 4.552 142.364 5.128 145.052 6.28C147.782 7.432 150.086 8.968 151.964 10.888C153.841 12.7653 155.185 14.8347 155.996 17.096L148.188 20.744C147.292 18.3547 145.777 16.392 143.644 14.856C141.51 13.2773 138.929 12.488 135.9 12.488C132.913 12.488 130.268 13.192 127.964 14.6C125.702 16.008 123.932 17.9493 122.652 20.424C121.414 22.8987 120.796 25.8 120.796 29.128C120.796 32.456 121.414 35.3787 122.652 37.896C123.932 40.3707 125.702 42.312 127.964 43.72C130.268 45.128 132.913 45.832 135.9 45.832C138.929 45.832 141.51 45.064 143.644 43.528C145.777 41.9493 147.292 39.9653 148.188 37.576L155.996 41.224C155.185 43.4853 153.841 45.576 151.964 47.496C150.086 49.3733 147.782 50.888 145.052 52.04C142.364 53.192 139.313 53.768 135.9 53.768ZM184.757 53.768C181.344 53.768 178.229 52.9787 175.413 51.4C172.64 49.8213 170.421 47.6667 168.757 44.936C167.136 42.2053 166.325 39.0907 166.325 35.592C166.325 32.0933 167.136 28.9787 168.757 26.248C170.421 23.5173 172.64 21.3627 175.413 19.784C178.187 18.2053 181.301 17.416 184.757 17.416C188.171 17.416 191.264 18.2053 194.037 19.784C196.811 21.3627 199.008 23.5173 200.629 26.248C202.293 28.936 203.125 32.0507 203.125 35.592C203.125 39.0907 202.293 42.2053 200.629 44.936C198.965 47.6667 196.747 49.8213 193.973 51.4C191.2 52.9787 188.128 53.768 184.757 53.768ZM184.757 46.088C186.635 46.088 188.277 45.64 189.685 44.744C191.136 43.848 192.267 42.6107 193.077 41.032C193.931 39.4107 194.357 37.5973 194.357 35.592C194.357 33.544 193.931 31.752 193.077 30.216C192.267 28.6373 191.136 27.4 189.685 26.504C188.277 25.5653 186.635 25.096 184.757 25.096C182.837 25.096 181.152 25.5653 179.701 26.504C178.251 27.4 177.099 28.6373 176.245 30.216C175.435 31.752 175.029 33.544 175.029 35.592C175.029 37.5973 175.435 39.4107 176.245 41.032C177.099 42.6107 178.251 43.848 179.701 44.744C181.152 45.64 182.837 46.088 184.757 46.088ZM215.483 53V18.184H223.355V25.032L222.715 23.816C223.526 21.7253 224.849 20.1467 226.683 19.08C228.561 17.9707 230.737 17.416 233.211 17.416C235.771 17.416 238.033 17.9707 239.995 19.08C242.001 20.1893 243.558 21.7467 244.667 23.752C245.777 25.7147 246.331 27.9973 246.331 30.6V53H237.947V32.584C237.947 31.048 237.649 29.7253 237.051 28.616C236.454 27.5067 235.622 26.6533 234.555 26.056C233.531 25.416 232.315 25.096 230.907 25.096C229.542 25.096 228.326 25.416 227.259 26.056C226.193 26.6533 225.361 27.5067 224.763 28.616C224.166 29.7253 223.867 31.048 223.867 32.584V53H215.483ZM269.292 53L255.596 18.184H264.748L274.668 45.576H271.276L281.26 18.184H290.412L276.716 53H269.292ZM316.933 53.768C313.349 53.768 310.213 52.9573 307.525 51.336C304.837 49.7147 302.746 47.5173 301.253 44.744C299.759 41.9707 299.013 38.8987 299.013 35.528C299.013 32.0293 299.759 28.936 301.253 26.248C302.789 23.5173 304.858 21.3627 307.461 19.784C310.106 18.2053 313.05 17.416 316.293 17.416C319.023 17.416 321.413 17.864 323.461 18.76C325.551 19.656 327.322 20.8933 328.773 22.472C330.223 24.0507 331.333 25.864 332.101 27.912C332.869 29.9173 333.253 32.0933 333.253 34.44C333.253 35.0373 333.21 35.656 333.125 36.296C333.082 36.936 332.975 37.4907 332.805 37.96H305.925V31.56H328.069L324.101 34.568C324.485 32.6053 324.378 30.856 323.781 29.32C323.226 27.784 322.287 26.568 320.965 25.672C319.685 24.776 318.127 24.328 316.293 24.328C314.543 24.328 312.986 24.776 311.621 25.672C310.255 26.5253 309.21 27.8053 308.485 29.512C307.802 31.176 307.546 33.2027 307.717 35.592C307.546 37.7253 307.823 39.624 308.549 41.288C309.317 42.9093 310.426 44.168 311.877 45.064C313.37 45.96 315.077 46.408 316.997 46.408C318.917 46.408 320.538 46.0027 321.861 45.192C323.226 44.3813 324.293 43.2933 325.061 41.928L331.845 45.256C331.162 46.92 330.095 48.392 328.645 49.672C327.194 50.952 325.466 51.9547 323.461 52.68C321.498 53.4053 319.322 53.768 316.933 53.768ZM345.608 53V18.184H353.48V25.928L352.84 24.776C353.651 22.1733 354.91 20.36 356.616 19.336C358.366 18.312 360.456 17.8 362.888 17.8H364.936V25.224H361.928C359.539 25.224 357.619 25.9707 356.168 27.464C354.718 28.9147 353.992 30.9627 353.992 33.608V53H345.608ZM392.442 67.08C389.839 67.08 387.428 66.6533 385.21 65.8C382.991 64.9467 381.071 63.752 379.45 62.216C377.871 60.7227 376.719 58.952 375.994 56.904L383.802 53.96C384.314 55.5813 385.316 56.8827 386.81 57.864C388.346 58.888 390.223 59.4 392.442 59.4C394.148 59.4 395.642 59.08 396.922 58.44C398.244 57.8 399.268 56.8613 399.994 55.624C400.719 54.4293 401.082 52.9787 401.082 51.272V43.336L402.682 45.256C401.487 47.3467 399.887 48.9253 397.882 49.992C395.876 51.0587 393.594 51.592 391.034 51.592C387.791 51.592 384.89 50.8453 382.33 49.352C379.77 47.8587 377.764 45.8107 376.314 43.208C374.863 40.6053 374.138 37.6827 374.138 34.44C374.138 31.1547 374.863 28.232 376.314 25.672C377.764 23.112 379.748 21.1067 382.266 19.656C384.783 18.1627 387.642 17.416 390.842 17.416C393.444 17.416 395.727 17.9707 397.69 19.08C399.695 20.1467 401.359 21.704 402.682 23.752L401.53 25.864V18.184H409.466V51.272C409.466 54.3013 408.719 57.0107 407.226 59.4C405.775 61.7893 403.77 63.6667 401.21 65.032C398.692 66.3973 395.77 67.08 392.442 67.08ZM392.058 43.848C393.85 43.848 395.407 43.464 396.73 42.696C398.095 41.8853 399.162 40.776 399.93 39.368C400.698 37.96 401.082 36.3387 401.082 34.504C401.082 32.712 400.676 31.112 399.866 29.704C399.098 28.2533 398.031 27.1227 396.666 26.312C395.343 25.5013 393.807 25.096 392.058 25.096C390.308 25.096 388.73 25.5013 387.322 26.312C385.914 27.1227 384.804 28.2533 383.994 29.704C383.226 31.112 382.842 32.712 382.842 34.504C382.842 36.296 383.226 37.896 383.994 39.304C384.804 40.712 385.892 41.8213 387.258 42.632C388.666 43.4427 390.266 43.848 392.058 43.848ZM439.808 53.768C436.224 53.768 433.088 52.9573 430.4 51.336C427.712 49.7147 425.621 47.5173 424.128 44.744C422.634 41.9707 421.888 38.8987 421.888 35.528C421.888 32.0293 422.634 28.936 424.128 26.248C425.664 23.5173 427.733 21.3627 430.336 19.784C432.981 18.2053 435.925 17.416 439.168 17.416C441.898 17.416 444.288 17.864 446.336 18.76C448.426 19.656 450.197 20.8933 451.648 22.472C453.098 24.0507 454.208 25.864 454.976 27.912C455.744 29.9173 456.128 32.0933 456.128 34.44C456.128 35.0373 456.085 35.656 456 36.296C455.957 36.936 455.85 37.4907 455.68 37.96H428.8V31.56H450.944L446.976 34.568C447.36 32.6053 447.253 30.856 446.656 29.32C446.101 27.784 445.162 26.568 443.84 25.672C442.56 24.776 441.002 24.328 439.168 24.328C437.418 24.328 435.861 24.776 434.496 25.672C433.13 26.5253 432.085 27.8053 431.36 29.512C430.677 31.176 430.421 33.2027 430.592 35.592C430.421 37.7253 430.698 39.624 431.424 41.288C432.192 42.9093 433.301 44.168 434.752 45.064C436.245 45.96 437.952 46.408 439.872 46.408C441.792 46.408 443.413 46.0027 444.736 45.192C446.101 44.3813 447.168 43.2933 447.936 41.928L454.72 45.256C454.037 46.92 452.97 48.392 451.52 49.672C450.069 50.952 448.341 51.9547 446.336 52.68C444.373 53.4053 442.197 53.768 439.808 53.768Z"
          fill="var(--color-primary)" />
    <path d="M53.66 0L83.6764 53.25H23.6436L53.66 0Z"
          fill="var(--color-primary)"
          fill-opacity="0.4" />
    <path d="M70.2317 0L100.248 53.25H40.2153L70.2317 0Z"
          fill="var(--color-primary)" />
    <path d="M35.5717 0L65.5882 53.25H5.55527L35.5717 0Z"
          fill="var(--color-primary)" />
</svg>
